<svg id="visual" viewBox="0 0 1920 1080" width="1920" height="1080" xmlns="http://www.w3.org/2000/svg" xmlns:xlink="http://www.w3.org/1999/xlink" version="1.1"><g stroke-width="1" stroke-linejoin="bevel"><path d="M970 554L1038 500L959 469Z" fill="#01775d" stroke="#01775d"></path><path d="M959 469L886 510L970 554Z" fill="#018668" stroke="#018668"></path><path d="M1038 500L1037 385L959 469Z" fill="#009070" stroke="#009070"></path><path d="M971 673L1052 610L970 554Z" fill="#009473" stroke="#009473"></path><path d="M970 554L1052 610L1038 500Z" fill="#018265" stroke="#018265"></path><path d="M1038 500L1141 546L1084 447Z" fill="#018668" stroke="#018668"></path><path d="M1084 447L1037 385L1038 500Z" fill="#018668" stroke="#018668"></path><path d="M959 469L853 408L886 510Z" fill="#018265" stroke="#018265"></path><path d="M886 510L866 596L970 554Z" fill="#017b60" stroke="#017b60"></path><path d="M1037 385L941 362L959 469Z" fill="#01896b" stroke="#01896b"></path><path d="M1052 610L1141 546L1038 500Z" fill="#01775d" stroke="#01775d"></path><path d="M866 596L971 673L970 554Z" fill="#018265" stroke="#018265"></path><path d="M1052 610L1151 619L1141 546Z" fill="#01896b" stroke="#01896b"></path><path d="M941 362L853 408L959 469Z" fill="#017e62" stroke="#017e62"></path><path d="M886 510L801 567L866 596Z" fill="#009070" stroke="#009070"></path><path d="M941 362L864 362L853 408Z" fill="#017b60" stroke="#017b60"></path><path d="M1141 546L1160 419L1084 447Z" fill="#009070" stroke="#009070"></path><path d="M1084 447L1118 354L1037 385Z" fill="#01896b" stroke="#01896b"></path><path d="M1154 678L1151 619L1052 610Z" fill="#017e62" stroke="#017e62"></path><path d="M1141 546L1242 516L1160 419Z" fill="#009070" stroke="#009070"></path><path d="M740 490L801 567L886 510Z" fill="#009473" stroke="#009473"></path><path d="M866 596L947 728L971 673Z" fill="#027058" stroke="#027058"></path><path d="M740 490L886 510L853 408Z" fill="#027058" stroke="#027058"></path><path d="M1160 419L1118 354L1084 447Z" fill="#017b60" stroke="#017b60"></path><path d="M1037 385L986 284L941 362Z" fill="#008d6d" stroke="#008d6d"></path><path d="M941 362L824 280L864 362Z" fill="#009473" stroke="#009473"></path><path d="M971 673L1038 711L1052 610Z" fill="#017b60" stroke="#017b60"></path><path d="M832 729L947 728L866 596Z" fill="#017b60" stroke="#017b60"></path><path d="M971 673L947 728L1038 711Z" fill="#017b60" stroke="#017b60"></path><path d="M1064 260L986 284L1037 385Z" fill="#017b60" stroke="#017b60"></path><path d="M1038 711L1154 678L1052 610Z" fill="#018668" stroke="#018668"></path><path d="M1151 619L1210 603L1141 546Z" fill="#009070" stroke="#009070"></path><path d="M1154 678L1210 603L1151 619Z" fill="#018265" stroke="#018265"></path><path d="M801 567L797 664L866 596Z" fill="#008d6d" stroke="#008d6d"></path><path d="M701 369L740 490L853 408Z" fill="#027058" stroke="#027058"></path><path d="M801 567L663 663L797 664Z" fill="#02745b" stroke="#02745b"></path><path d="M1210 603L1242 516L1141 546Z" fill="#018668" stroke="#018668"></path><path d="M1160 419L1261 389L1118 354Z" fill="#01775d" stroke="#01775d"></path><path d="M1150 231L1064 260L1118 354Z" fill="#01775d" stroke="#01775d"></path><path d="M1118 354L1064 260L1037 385Z" fill="#017e62" stroke="#017e62"></path><path d="M824 280L797 329L864 362Z" fill="#008d6d" stroke="#008d6d"></path><path d="M864 362L797 329L853 408Z" fill="#018668" stroke="#018668"></path><path d="M824 280L941 362L986 284Z" fill="#017e62" stroke="#017e62"></path><path d="M797 664L832 729L866 596Z" fill="#027058" stroke="#027058"></path><path d="M926 190L824 280L986 284Z" fill="#01896b" stroke="#01896b"></path><path d="M1354 574L1279 471L1242 516Z" fill="#008d6d" stroke="#008d6d"></path><path d="M1242 516L1279 471L1160 419Z" fill="#01775d" stroke="#01775d"></path><path d="M1279 471L1261 389L1160 419Z" fill="#008d6d" stroke="#008d6d"></path><path d="M931 840L1044 809L947 728Z" fill="#008d6d" stroke="#008d6d"></path><path d="M947 728L1044 809L1038 711Z" fill="#009473" stroke="#009473"></path><path d="M1038 711L1190 786L1154 678Z" fill="#017b60" stroke="#017b60"></path><path d="M797 664L767 727L832 729Z" fill="#017b60" stroke="#017b60"></path><path d="M832 729L844 810L947 728Z" fill="#009473" stroke="#009473"></path><path d="M663 663L767 727L797 664Z" fill="#01896b" stroke="#01896b"></path><path d="M709 289L701 369L797 329Z" fill="#018265" stroke="#018265"></path><path d="M797 329L701 369L853 408Z" fill="#009473" stroke="#009473"></path><path d="M740 490L652 502L801 567Z" fill="#009473" stroke="#009473"></path><path d="M1257 255L1150 231L1118 354Z" fill="#02745b" stroke="#02745b"></path><path d="M1070 178L926 190L986 284Z" fill="#018265" stroke="#018265"></path><path d="M1070 178L986 284L1064 260Z" fill="#017e62" stroke="#017e62"></path><path d="M824 280L735 270L797 329Z" fill="#008d6d" stroke="#008d6d"></path><path d="M767 727L844 810L832 729Z" fill="#009473" stroke="#009473"></path><path d="M844 810L931 840L947 728Z" fill="#009070" stroke="#009070"></path><path d="M701 369L652 502L740 490Z" fill="#02745b" stroke="#02745b"></path><path d="M1150 231L1070 178L1064 260Z" fill="#008d6d" stroke="#008d6d"></path><path d="M1044 809L1190 786L1038 711Z" fill="#027058" stroke="#027058"></path><path d="M1154 678L1278 701L1210 603Z" fill="#01896b" stroke="#01896b"></path><path d="M1210 603L1354 574L1242 516Z" fill="#02745b" stroke="#02745b"></path><path d="M1170 902L1190 786L1044 809Z" fill="#027058" stroke="#027058"></path><path d="M1190 786L1278 701L1154 678Z" fill="#009473" stroke="#009473"></path><path d="M742 138L735 270L824 280Z" fill="#017b60" stroke="#017b60"></path><path d="M701 369L628 480L652 502Z" fill="#018265" stroke="#018265"></path><path d="M735 270L709 289L797 329Z" fill="#02745b" stroke="#02745b"></path><path d="M617 607L663 663L801 567Z" fill="#01896b" stroke="#01896b"></path><path d="M804 842L860 861L844 810Z" fill="#02745b" stroke="#02745b"></path><path d="M594 490L628 480L559 351Z" fill="#01775d" stroke="#01775d"></path><path d="M652 502L617 607L801 567Z" fill="#01775d" stroke="#01775d"></path><path d="M1316 254L1257 255L1261 389Z" fill="#01775d" stroke="#01775d"></path><path d="M1261 389L1257 255L1118 354Z" fill="#009070" stroke="#009070"></path><path d="M1150 231L1118 136L1070 178Z" fill="#02745b" stroke="#02745b"></path><path d="M1278 701L1354 574L1210 603Z" fill="#01896b" stroke="#01896b"></path><path d="M1279 471L1364 460L1261 389Z" fill="#01775d" stroke="#01775d"></path><path d="M844 810L860 861L931 840Z" fill="#027058" stroke="#027058"></path><path d="M931 840L1044 895L1044 809Z" fill="#018668" stroke="#018668"></path><path d="M804 842L844 810L767 727Z" fill="#009473" stroke="#009473"></path><path d="M947 127L857 155L926 190Z" fill="#009070" stroke="#009070"></path><path d="M926 190L857 155L824 280Z" fill="#027058" stroke="#027058"></path><path d="M735 270L693 173L709 289Z" fill="#009070" stroke="#009070"></path><path d="M1354 574L1364 460L1279 471Z" fill="#018668" stroke="#018668"></path><path d="M675 785L804 842L767 727Z" fill="#018265" stroke="#018265"></path><path d="M1070 178L947 127L926 190Z" fill="#01896b" stroke="#01896b"></path><path d="M1065 96L947 127L1070 178Z" fill="#009070" stroke="#009070"></path><path d="M590 564L617 607L652 502Z" fill="#01775d" stroke="#01775d"></path><path d="M663 663L678 739L767 727Z" fill="#009473" stroke="#009473"></path><path d="M573 744L678 739L663 663Z" fill="#009070" stroke="#009070"></path><path d="M931 929L1044 895L931 840Z" fill="#02745b" stroke="#02745b"></path><path d="M1190 104L1118 136L1150 231Z" fill="#009473" stroke="#009473"></path><path d="M559 351L628 480L701 369Z" fill="#01896b" stroke="#01896b"></path><path d="M628 480L594 490L652 502Z" fill="#01896b" stroke="#01896b"></path><path d="M1278 701L1370 628L1354 574Z" fill="#018265" stroke="#018265"></path><path d="M1453 571L1405 439L1364 460Z" fill="#017b60" stroke="#017b60"></path><path d="M1382 732L1370 628L1278 701Z" fill="#009070" stroke="#009070"></path><path d="M1405 439L1373 386L1364 460Z" fill="#01775d" stroke="#01775d"></path><path d="M1364 460L1373 386L1261 389Z" fill="#027058" stroke="#027058"></path><path d="M594 490L590 564L652 502Z" fill="#01775d" stroke="#01775d"></path><path d="M573 744L675 785L678 739Z" fill="#027058" stroke="#027058"></path><path d="M1373 386L1316 254L1261 389Z" fill="#02745b" stroke="#02745b"></path><path d="M1257 255L1252 181L1150 231Z" fill="#027058" stroke="#027058"></path><path d="M1240 860L1287 797L1190 786Z" fill="#01896b" stroke="#01896b"></path><path d="M1190 786L1287 797L1278 701Z" fill="#018668" stroke="#018668"></path><path d="M1287 797L1310 772L1278 701Z" fill="#01896b" stroke="#01896b"></path><path d="M573 744L663 663L617 607Z" fill="#027058" stroke="#027058"></path><path d="M678 739L675 785L767 727Z" fill="#018265" stroke="#018265"></path><path d="M1190 104L1065 96L1118 136Z" fill="#02745b" stroke="#02745b"></path><path d="M1118 136L1065 96L1070 178Z" fill="#017b60" stroke="#017b60"></path><path d="M1316 254L1252 181L1257 255Z" fill="#008d6d" stroke="#008d6d"></path><path d="M1453 571L1364 460L1354 574Z" fill="#018265" stroke="#018265"></path><path d="M1373 386L1355 218L1316 254Z" fill="#017b60" stroke="#017b60"></path><path d="M801 1010L931 929L860 861Z" fill="#008d6d" stroke="#008d6d"></path><path d="M860 861L931 929L931 840Z" fill="#009473" stroke="#009473"></path><path d="M968 973L931 929L852 1029Z" fill="#017b60" stroke="#017b60"></path><path d="M1170 902L1240 860L1190 786Z" fill="#01896b" stroke="#01896b"></path><path d="M1404 744L1382 732L1405 785Z" fill="#008d6d" stroke="#008d6d"></path><path d="M1170 902L1044 809L1044 895Z" fill="#01775d" stroke="#01775d"></path><path d="M1154 953L1170 902L1044 895Z" fill="#008d6d" stroke="#008d6d"></path><path d="M1405 439L1410 401L1373 386Z" fill="#027058" stroke="#027058"></path><path d="M1382 732L1415 632L1370 628Z" fill="#027058" stroke="#027058"></path><path d="M1370 628L1415 632L1354 574Z" fill="#018668" stroke="#018668"></path><path d="M1405 439L1494 445L1410 401Z" fill="#027058" stroke="#027058"></path><path d="M839 61L857 155L947 127Z" fill="#027058" stroke="#027058"></path><path d="M799 60L742 138L857 155Z" fill="#02745b" stroke="#02745b"></path><path d="M857 155L742 138L824 280Z" fill="#02745b" stroke="#02745b"></path><path d="M573 284L559 351L701 369Z" fill="#01775d" stroke="#01775d"></path><path d="M742 138L693 173L735 270Z" fill="#02745b" stroke="#02745b"></path><path d="M1241 106L1190 104L1252 181Z" fill="#009473" stroke="#009473"></path><path d="M1252 181L1190 104L1150 231Z" fill="#027058" stroke="#027058"></path><path d="M1382 732L1310 772L1405 785Z" fill="#018265" stroke="#018265"></path><path d="M1310 772L1382 732L1278 701Z" fill="#009070" stroke="#009070"></path><path d="M573 284L701 369L709 289Z" fill="#018265" stroke="#018265"></path><path d="M594 490L519 501L590 564Z" fill="#02745b" stroke="#02745b"></path><path d="M730 929L860 861L804 842Z" fill="#009070" stroke="#009070"></path><path d="M931 929L968 973L1044 895Z" fill="#017e62" stroke="#017e62"></path><path d="M1482 268L1355 218L1373 386Z" fill="#018668" stroke="#018668"></path><path d="M1316 254L1355 218L1252 181Z" fill="#018265" stroke="#018265"></path><path d="M1519 559L1453 571L1526 648Z" fill="#018265" stroke="#018265"></path><path d="M1415 632L1453 571L1354 574Z" fill="#027058" stroke="#027058"></path><path d="M519 379L519 501L594 490Z" fill="#018265" stroke="#018265"></path><path d="M496 631L573 744L617 607Z" fill="#017b60" stroke="#017b60"></path><path d="M987 0L947 127L1065 96Z" fill="#017b60" stroke="#017b60"></path><path d="M864 0L839 61L947 127Z" fill="#017e62" stroke="#017e62"></path><path d="M613 50L618 198L693 173Z" fill="#027058" stroke="#027058"></path><path d="M618 198L573 284L709 289Z" fill="#01896b" stroke="#01896b"></path><path d="M559 351L519 379L594 490Z" fill="#017b60" stroke="#017b60"></path><path d="M1085 1001L1154 953L1044 895Z" fill="#018265" stroke="#018265"></path><path d="M1170 902L1212 962L1240 860Z" fill="#018265" stroke="#018265"></path><path d="M1405 785L1310 772L1363 882Z" fill="#017e62" stroke="#017e62"></path><path d="M1339 89L1241 106L1252 181Z" fill="#018668" stroke="#018668"></path><path d="M1072 0L987 0L1065 96Z" fill="#01896b" stroke="#01896b"></path><path d="M1310 772L1287 797L1363 882Z" fill="#01775d" stroke="#01775d"></path><path d="M1382 732L1404 744L1415 632Z" fill="#017e62" stroke="#017e62"></path><path d="M496 631L617 607L590 564Z" fill="#01775d" stroke="#01775d"></path><path d="M675 785L730 929L804 842Z" fill="#017b60" stroke="#017b60"></path><path d="M693 173L618 198L709 289Z" fill="#008d6d" stroke="#008d6d"></path><path d="M630 46L693 173L742 138Z" fill="#008d6d" stroke="#008d6d"></path><path d="M839 61L799 60L857 155Z" fill="#009473" stroke="#009473"></path><path d="M487 290L519 379L559 351Z" fill="#018265" stroke="#018265"></path><path d="M453 482L519 379L401 376Z" fill="#02745b" stroke="#02745b"></path><path d="M654 904L730 929L675 785Z" fill="#017e62" stroke="#017e62"></path><path d="M1363 882L1287 797L1240 860Z" fill="#017b60" stroke="#017b60"></path><path d="M1526 648L1453 571L1415 632Z" fill="#02745b" stroke="#02745b"></path><path d="M1061 1080L1085 1001L968 973Z" fill="#01896b" stroke="#01896b"></path><path d="M968 973L1085 1001L1044 895Z" fill="#018668" stroke="#018668"></path><path d="M1154 953L1212 962L1170 902Z" fill="#01775d" stroke="#01775d"></path><path d="M1154 1080L1212 962L1154 953Z" fill="#009473" stroke="#009473"></path><path d="M453 482L496 631L519 501Z" fill="#008d6d" stroke="#008d6d"></path><path d="M519 501L496 631L590 564Z" fill="#009070" stroke="#009070"></path><path d="M1072 0L1065 96L1180 0Z" fill="#018668" stroke="#018668"></path><path d="M839 61L864 0L799 60Z" fill="#009473" stroke="#009473"></path><path d="M1519 559L1494 445L1453 571Z" fill="#017e62" stroke="#017e62"></path><path d="M1453 571L1494 445L1405 439Z" fill="#018668" stroke="#018668"></path><path d="M1410 401L1482 268L1373 386Z" fill="#009473" stroke="#009473"></path><path d="M1180 0L1065 96L1190 104Z" fill="#01775d" stroke="#01775d"></path><path d="M598 868L654 904L675 785Z" fill="#01775d" stroke="#01775d"></path><path d="M598 868L675 785L573 744Z" fill="#008d6d" stroke="#008d6d"></path><path d="M987 0L864 0L947 127Z" fill="#018668" stroke="#018668"></path><path d="M799 60L734 0L742 138Z" fill="#009473" stroke="#009473"></path><path d="M1332 978L1363 882L1240 860Z" fill="#017e62" stroke="#017e62"></path><path d="M532 810L598 868L573 744Z" fill="#009070" stroke="#009070"></path><path d="M1526 648L1415 632L1522 676Z" fill="#009070" stroke="#009070"></path><path d="M1415 632L1404 744L1522 676Z" fill="#01775d" stroke="#01775d"></path><path d="M496 631L499 722L573 744Z" fill="#02745b" stroke="#02745b"></path><path d="M698 964L730 929L654 904Z" fill="#02745b" stroke="#02745b"></path><path d="M698 964L801 1010L730 929Z" fill="#008d6d" stroke="#008d6d"></path><path d="M730 929L801 1010L860 861Z" fill="#009070" stroke="#009070"></path><path d="M487 290L559 351L573 284Z" fill="#009473" stroke="#009473"></path><path d="M519 379L453 482L519 501Z" fill="#027058" stroke="#027058"></path><path d="M380 714L438 767L499 722Z" fill="#018668" stroke="#018668"></path><path d="M1611 354L1511 376L1640 467Z" fill="#02745b" stroke="#02745b"></path><path d="M1494 445L1511 376L1410 401Z" fill="#01775d" stroke="#01775d"></path><path d="M801 1010L852 1029L931 929Z" fill="#008d6d" stroke="#008d6d"></path><path d="M666 1080L698 964L593 1080Z" fill="#02745b" stroke="#02745b"></path><path d="M1215 0L1190 104L1241 106Z" fill="#009473" stroke="#009473"></path><path d="M1215 0L1180 0L1190 104Z" fill="#027058" stroke="#027058"></path><path d="M1339 89L1252 181L1355 218Z" fill="#009473" stroke="#009473"></path><path d="M1480 163L1339 89L1355 218Z" fill="#01896b" stroke="#01896b"></path><path d="M494 142L573 284L618 198Z" fill="#018265" stroke="#018265"></path><path d="M494 142L487 290L573 284Z" fill="#017b60" stroke="#017b60"></path><path d="M499 722L532 810L573 744Z" fill="#017b60" stroke="#017b60"></path><path d="M539 1030L698 964L654 904Z" fill="#027058" stroke="#027058"></path><path d="M1511 376L1482 268L1410 401Z" fill="#01775d" stroke="#01775d"></path><path d="M1522 676L1404 744L1502 847Z" fill="#009070" stroke="#009070"></path><path d="M1611 354L1529 303L1511 376Z" fill="#017e62" stroke="#017e62"></path><path d="M1319 0L1215 0L1241 106Z" fill="#009070" stroke="#009070"></path><path d="M1502 847L1404 744L1405 785Z" fill="#018668" stroke="#018668"></path><path d="M864 0L734 0L799 60Z" fill="#018668" stroke="#018668"></path><path d="M1412 994L1432 869L1363 882Z" fill="#01775d" stroke="#01775d"></path><path d="M1363 882L1432 869L1405 785Z" fill="#009070" stroke="#009070"></path><path d="M852 1029L957 1080L968 973Z" fill="#009473" stroke="#009473"></path><path d="M1085 1001L1154 1080L1154 953Z" fill="#01775d" stroke="#01775d"></path><path d="M1212 962L1332 978L1240 860Z" fill="#017e62" stroke="#017e62"></path><path d="M822 1080L957 1080L852 1029Z" fill="#01775d" stroke="#01775d"></path><path d="M822 1080L852 1029L801 1010Z" fill="#009473" stroke="#009473"></path><path d="M957 1080L1061 1080L968 973Z" fill="#027058" stroke="#027058"></path><path d="M1511 376L1494 445L1640 467Z" fill="#009070" stroke="#009070"></path><path d="M1511 376L1529 303L1482 268Z" fill="#01896b" stroke="#01896b"></path><path d="M1482 268L1480 163L1355 218Z" fill="#017e62" stroke="#017e62"></path><path d="M1272 1080L1332 978L1212 962Z" fill="#018265" stroke="#018265"></path><path d="M734 0L630 46L742 138Z" fill="#018668" stroke="#018668"></path><path d="M553 0L613 50L630 46Z" fill="#008d6d" stroke="#008d6d"></path><path d="M630 46L613 50L693 173Z" fill="#017b60" stroke="#017b60"></path><path d="M1061 1080L1154 1080L1085 1001Z" fill="#008d6d" stroke="#008d6d"></path><path d="M811 1080L801 1010L666 1080Z" fill="#009070" stroke="#009070"></path><path d="M811 1080L822 1080L801 1010Z" fill="#009070" stroke="#009070"></path><path d="M666 1080L801 1010L698 964Z" fill="#02745b" stroke="#02745b"></path><path d="M734 0L671 0L630 46Z" fill="#01896b" stroke="#01896b"></path><path d="M1542 162L1480 163L1482 268Z" fill="#009473" stroke="#009473"></path><path d="M1339 89L1319 0L1241 106Z" fill="#02745b" stroke="#02745b"></path><path d="M487 290L401 376L519 379Z" fill="#017b60" stroke="#017b60"></path><path d="M394 645L499 722L496 631Z" fill="#008d6d" stroke="#008d6d"></path><path d="M329 360L401 376L359 242Z" fill="#018265" stroke="#018265"></path><path d="M1416 60L1319 0L1339 89Z" fill="#017b60" stroke="#017b60"></path><path d="M499 722L438 767L532 810Z" fill="#009473" stroke="#009473"></path><path d="M532 810L495 868L598 868Z" fill="#01896b" stroke="#01896b"></path><path d="M394 645L496 631L352 581Z" fill="#009473" stroke="#009473"></path><path d="M352 581L496 631L453 482Z" fill="#018265" stroke="#018265"></path><path d="M438 767L495 868L532 810Z" fill="#018265" stroke="#018265"></path><path d="M1524 885L1502 847L1432 869Z" fill="#017b60" stroke="#017b60"></path><path d="M1432 869L1502 847L1405 785Z" fill="#018668" stroke="#018668"></path><path d="M1522 676L1590 645L1526 648Z" fill="#009473" stroke="#009473"></path><path d="M465 63L494 142L613 50Z" fill="#009473" stroke="#009473"></path><path d="M613 50L494 142L618 198Z" fill="#01896b" stroke="#01896b"></path><path d="M1630 722L1590 645L1522 676Z" fill="#017e62" stroke="#017e62"></path><path d="M1526 648L1590 645L1519 559Z" fill="#018668" stroke="#018668"></path><path d="M1480 163L1416 60L1339 89Z" fill="#018668" stroke="#018668"></path><path d="M329 360L368 412L401 376Z" fill="#018265" stroke="#018265"></path><path d="M401 376L368 412L453 482Z" fill="#01896b" stroke="#01896b"></path><path d="M1154 1080L1272 1080L1212 962Z" fill="#01896b" stroke="#01896b"></path><path d="M1332 978L1412 994L1363 882Z" fill="#02745b" stroke="#02745b"></path><path d="M1640 467L1494 445L1519 559Z" fill="#027058" stroke="#027058"></path><path d="M1542 162L1501 119L1480 163Z" fill="#017e62" stroke="#017e62"></path><path d="M1480 163L1501 119L1416 60Z" fill="#009473" stroke="#009473"></path><path d="M368 412L352 581L453 482Z" fill="#017e62" stroke="#017e62"></path><path d="M394 645L380 714L499 722Z" fill="#017b60" stroke="#017b60"></path><path d="M249 637L380 714L394 645Z" fill="#017e62" stroke="#017e62"></path><path d="M438 767L420 848L495 868Z" fill="#01775d" stroke="#01775d"></path><path d="M1542 162L1482 268L1529 303Z" fill="#02745b" stroke="#02745b"></path><path d="M1382 1080L1412 994L1332 978Z" fill="#017b60" stroke="#017b60"></path><path d="M1665 528L1640 467L1519 559Z" fill="#018668" stroke="#018668"></path><path d="M1637 283L1542 162L1529 303Z" fill="#017e62" stroke="#017e62"></path><path d="M1412 994L1524 885L1432 869Z" fill="#018668" stroke="#018668"></path><path d="M1502 847L1630 722L1522 676Z" fill="#009473" stroke="#009473"></path><path d="M1590 645L1665 528L1519 559Z" fill="#027058" stroke="#027058"></path><path d="M539 1030L654 904L598 868Z" fill="#008d6d" stroke="#008d6d"></path><path d="M315 787L420 848L438 767Z" fill="#017e62" stroke="#017e62"></path><path d="M495 868L539 1030L598 868Z" fill="#01896b" stroke="#01896b"></path><path d="M671 0L553 0L630 46Z" fill="#009070" stroke="#009070"></path><path d="M359 242L401 376L487 290Z" fill="#017e62" stroke="#017e62"></path><path d="M1637 816L1630 722L1502 847Z" fill="#009473" stroke="#009473"></path><path d="M1706 534L1665 528L1729 610Z" fill="#017e62" stroke="#017e62"></path><path d="M1711 335L1637 283L1611 354Z" fill="#017b60" stroke="#017b60"></path><path d="M359 242L487 290L494 142Z" fill="#009070" stroke="#009070"></path><path d="M368 412L284 452L352 581Z" fill="#018265" stroke="#018265"></path><path d="M353 208L359 242L494 142Z" fill="#01775d" stroke="#01775d"></path><path d="M1711 335L1611 354L1739 412Z" fill="#018668" stroke="#018668"></path><path d="M1611 354L1637 283L1529 303Z" fill="#027058" stroke="#027058"></path><path d="M553 0L465 63L613 50Z" fill="#018265" stroke="#018265"></path><path d="M447 1024L539 1030L495 868Z" fill="#017b60" stroke="#017b60"></path><path d="M553 0L520 0L465 63Z" fill="#01775d" stroke="#01775d"></path><path d="M1272 1080L1382 1080L1332 978Z" fill="#02745b" stroke="#02745b"></path><path d="M1573 985L1591 930L1524 885Z" fill="#008d6d" stroke="#008d6d"></path><path d="M1593 142L1501 119L1542 162Z" fill="#017b60" stroke="#017b60"></path><path d="M1566 0L1463 0L1501 119Z" fill="#02745b" stroke="#02745b"></path><path d="M1501 119L1463 0L1416 60Z" fill="#018668" stroke="#018668"></path><path d="M1416 60L1463 0L1319 0Z" fill="#009473" stroke="#009473"></path><path d="M539 1030L593 1080L698 964Z" fill="#017e62" stroke="#017e62"></path><path d="M371 93L353 208L494 142Z" fill="#01775d" stroke="#01775d"></path><path d="M359 242L267 305L329 360Z" fill="#01775d" stroke="#01775d"></path><path d="M1637 283L1593 142L1542 162Z" fill="#01896b" stroke="#01896b"></path><path d="M210 419L284 452L329 360Z" fill="#02745b" stroke="#02745b"></path><path d="M329 360L284 452L368 412Z" fill="#017b60" stroke="#017b60"></path><path d="M265 741L315 787L380 714Z" fill="#009070" stroke="#009070"></path><path d="M326 954L411 938L420 848Z" fill="#009473" stroke="#009473"></path><path d="M1524 885L1637 816L1502 847Z" fill="#018668" stroke="#018668"></path><path d="M1729 610L1665 528L1590 645Z" fill="#01896b" stroke="#01896b"></path><path d="M1591 930L1637 816L1524 885Z" fill="#017e62" stroke="#017e62"></path><path d="M1729 610L1590 645L1630 722Z" fill="#01775d" stroke="#01775d"></path><path d="M1665 528L1706 534L1640 467Z" fill="#02745b" stroke="#02745b"></path><path d="M315 787L438 767L380 714Z" fill="#017e62" stroke="#017e62"></path><path d="M420 848L411 938L495 868Z" fill="#018668" stroke="#018668"></path><path d="M539 1030L515 1080L593 1080Z" fill="#01775d" stroke="#01775d"></path><path d="M249 637L394 645L352 581Z" fill="#017b60" stroke="#017b60"></path><path d="M1573 985L1524 885L1412 994Z" fill="#02745b" stroke="#02745b"></path><path d="M284 452L256 582L352 581Z" fill="#02745b" stroke="#02745b"></path><path d="M1739 412L1611 354L1640 467Z" fill="#01775d" stroke="#01775d"></path><path d="M1733 170L1656 96L1593 142Z" fill="#02745b" stroke="#02745b"></path><path d="M447 1024L515 1080L539 1030Z" fill="#009473" stroke="#009473"></path><path d="M1382 1080L1464 1080L1412 994Z" fill="#01896b" stroke="#01896b"></path><path d="M465 63L371 93L494 142Z" fill="#009473" stroke="#009473"></path><path d="M284 209L267 305L359 242Z" fill="#018668" stroke="#018668"></path><path d="M390 0L371 93L465 63Z" fill="#017e62" stroke="#017e62"></path><path d="M1720 753L1630 722L1637 816Z" fill="#01775d" stroke="#01775d"></path><path d="M1720 753L1729 610L1630 722Z" fill="#008d6d" stroke="#008d6d"></path><path d="M1706 534L1739 412L1640 467Z" fill="#01896b" stroke="#01896b"></path><path d="M411 938L447 1024L495 868Z" fill="#017b60" stroke="#017b60"></path><path d="M418 995L447 1024L411 938Z" fill="#008d6d" stroke="#008d6d"></path><path d="M284 209L359 242L353 208Z" fill="#017e62" stroke="#017e62"></path><path d="M284 452L176 566L256 582Z" fill="#01775d" stroke="#01775d"></path><path d="M326 954L418 995L411 938Z" fill="#009473" stroke="#009473"></path><path d="M193 632L249 637L256 582Z" fill="#017b60" stroke="#017b60"></path><path d="M256 582L249 637L352 581Z" fill="#01896b" stroke="#01896b"></path><path d="M1464 1080L1573 985L1412 994Z" fill="#017e62" stroke="#017e62"></path><path d="M1707 810L1720 753L1637 816Z" fill="#027058" stroke="#027058"></path><path d="M1782 432L1739 412L1706 534Z" fill="#009070" stroke="#009070"></path><path d="M249 637L265 741L380 714Z" fill="#018265" stroke="#018265"></path><path d="M281 892L326 954L420 848Z" fill="#017e62" stroke="#017e62"></path><path d="M371 93L284 209L353 208Z" fill="#008d6d" stroke="#008d6d"></path><path d="M1656 96L1566 0L1593 142Z" fill="#01775d" stroke="#01775d"></path><path d="M1593 142L1566 0L1501 119Z" fill="#017b60" stroke="#017b60"></path><path d="M1707 810L1637 816L1694 862Z" fill="#009070" stroke="#009070"></path><path d="M1694 862L1637 816L1591 930Z" fill="#02745b" stroke="#02745b"></path><path d="M1733 170L1593 142L1637 283Z" fill="#027058" stroke="#027058"></path><path d="M1733 170L1637 283L1762 234Z" fill="#01896b" stroke="#01896b"></path><path d="M218 306L210 419L267 305Z" fill="#01896b" stroke="#01896b"></path><path d="M267 305L210 419L329 360Z" fill="#009070" stroke="#009070"></path><path d="M222 793L315 787L265 741Z" fill="#01775d" stroke="#01775d"></path><path d="M371 93L231 142L284 209Z" fill="#008d6d" stroke="#008d6d"></path><path d="M520 0L390 0L465 63Z" fill="#017b60" stroke="#017b60"></path><path d="M1672 1029L1694 862L1591 930Z" fill="#01775d" stroke="#01775d"></path><path d="M1860 507L1782 432L1706 534Z" fill="#008d6d" stroke="#008d6d"></path><path d="M1739 412L1849 346L1711 335Z" fill="#018668" stroke="#018668"></path><path d="M1795 607L1706 534L1729 610Z" fill="#017e62" stroke="#017e62"></path><path d="M284 209L218 306L267 305Z" fill="#018668" stroke="#018668"></path><path d="M231 142L218 306L284 209Z" fill="#008d6d" stroke="#008d6d"></path><path d="M1464 1080L1545 1080L1573 985Z" fill="#009473" stroke="#009473"></path><path d="M1573 985L1672 1029L1591 930Z" fill="#027058" stroke="#027058"></path><path d="M281 892L420 848L315 787Z" fill="#01775d" stroke="#01775d"></path><path d="M418 995L369 1080L447 1024Z" fill="#018668" stroke="#018668"></path><path d="M447 1024L369 1080L515 1080Z" fill="#009070" stroke="#009070"></path><path d="M390 0L325 58L371 93Z" fill="#017e62" stroke="#017e62"></path><path d="M174 680L265 741L249 637Z" fill="#01775d" stroke="#01775d"></path><path d="M222 793L281 892L315 787Z" fill="#017b60" stroke="#017b60"></path><path d="M176 566L284 452L210 419Z" fill="#009473" stroke="#009473"></path><path d="M176 566L193 632L256 582Z" fill="#027058" stroke="#027058"></path><path d="M1783 713L1795 607L1729 610Z" fill="#009070" stroke="#009070"></path><path d="M1783 713L1729 610L1720 753Z" fill="#027058" stroke="#027058"></path><path d="M1783 713L1720 753L1784 850Z" fill="#018668" stroke="#018668"></path><path d="M111 554L176 566L210 419Z" fill="#01896b" stroke="#01896b"></path><path d="M1762 234L1637 283L1711 335Z" fill="#01896b" stroke="#01896b"></path><path d="M1656 96L1673 0L1566 0Z" fill="#017e62" stroke="#017e62"></path><path d="M174 680L222 793L265 741Z" fill="#008d6d" stroke="#008d6d"></path><path d="M174 680L249 637L193 632Z" fill="#017b60" stroke="#017b60"></path><path d="M1784 850L1720 753L1707 810Z" fill="#009070" stroke="#009070"></path><path d="M1848 313L1762 234L1711 335Z" fill="#017e62" stroke="#017e62"></path><path d="M131 703L174 680L60 624Z" fill="#017e62" stroke="#017e62"></path><path d="M390 0L325 0L325 58Z" fill="#017e62" stroke="#017e62"></path><path d="M325 58L231 142L371 93Z" fill="#009070" stroke="#009070"></path><path d="M213 0L231 142L325 58Z" fill="#01775d" stroke="#01775d"></path><path d="M218 306L151 319L210 419Z" fill="#018668" stroke="#018668"></path><path d="M207 959L326 954L281 892Z" fill="#01775d" stroke="#01775d"></path><path d="M281 1080L369 1080L326 954Z" fill="#01896b" stroke="#01896b"></path><path d="M326 954L369 1080L418 995Z" fill="#008d6d" stroke="#008d6d"></path><path d="M1744 104L1656 96L1733 170Z" fill="#017b60" stroke="#017b60"></path><path d="M1744 104L1673 0L1656 96Z" fill="#009473" stroke="#009473"></path><path d="M1804 171L1744 104L1733 170Z" fill="#027058" stroke="#027058"></path><path d="M1656 1080L1672 1029L1573 985Z" fill="#009473" stroke="#009473"></path><path d="M1694 862L1784 850L1707 810Z" fill="#017e62" stroke="#017e62"></path><path d="M95 195L151 319L218 306Z" fill="#01896b" stroke="#01896b"></path><path d="M176 566L111 554L193 632Z" fill="#008d6d" stroke="#008d6d"></path><path d="M82 788L203 863L222 793Z" fill="#01775d" stroke="#01775d"></path><path d="M222 793L203 863L281 892Z" fill="#009473" stroke="#009473"></path><path d="M1764 957L1784 850L1694 862Z" fill="#017e62" stroke="#017e62"></path><path d="M1920 569L1860 507L1795 607Z" fill="#009070" stroke="#009070"></path><path d="M1795 607L1860 507L1706 534Z" fill="#009473" stroke="#009473"></path><path d="M1782 432L1849 346L1739 412Z" fill="#017b60" stroke="#017b60"></path><path d="M1762 234L1804 171L1733 170Z" fill="#009070" stroke="#009070"></path><path d="M1920 569L1795 607L1920 617Z" fill="#018265" stroke="#018265"></path><path d="M1920 442L1849 346L1782 432Z" fill="#009473" stroke="#009473"></path><path d="M1545 1080L1656 1080L1573 985Z" fill="#017e62" stroke="#017e62"></path><path d="M1672 1029L1764 957L1694 862Z" fill="#009070" stroke="#009070"></path><path d="M62 441L111 554L210 419Z" fill="#009070" stroke="#009070"></path><path d="M174 680L131 703L222 793Z" fill="#01775d" stroke="#01775d"></path><path d="M60 624L174 680L193 632Z" fill="#017b60" stroke="#017b60"></path><path d="M1920 362L1848 313L1849 346Z" fill="#018265" stroke="#018265"></path><path d="M1849 346L1848 313L1711 335Z" fill="#017e62" stroke="#017e62"></path><path d="M1848 313L1804 171L1762 234Z" fill="#01775d" stroke="#01775d"></path><path d="M1744 104L1759 0L1673 0Z" fill="#017e62" stroke="#017e62"></path><path d="M77 298L113 380L151 319Z" fill="#01896b" stroke="#01896b"></path><path d="M151 319L113 380L210 419Z" fill="#01896b" stroke="#01896b"></path><path d="M1816 965L1764 957L1745 1080Z" fill="#02745b" stroke="#02745b"></path><path d="M1920 706L1795 607L1783 713Z" fill="#008d6d" stroke="#008d6d"></path><path d="M127 1009L207 959L54 911Z" fill="#017b60" stroke="#017b60"></path><path d="M203 863L207 959L281 892Z" fill="#027058" stroke="#027058"></path><path d="M207 959L281 1080L326 954Z" fill="#008d6d" stroke="#008d6d"></path><path d="M1764 957L1814 896L1784 850Z" fill="#008d6d" stroke="#008d6d"></path><path d="M1806 0L1759 0L1744 104Z" fill="#017b60" stroke="#017b60"></path><path d="M1830 113L1744 104L1804 171Z" fill="#01896b" stroke="#01896b"></path><path d="M325 0L213 0L325 58Z" fill="#027058" stroke="#027058"></path><path d="M231 142L95 195L218 306Z" fill="#02745b" stroke="#02745b"></path><path d="M213 0L152 108L231 142Z" fill="#01896b" stroke="#01896b"></path><path d="M1920 166L1830 113L1804 171Z" fill="#009070" stroke="#009070"></path><path d="M0 426L62 441L0 364Z" fill="#017e62" stroke="#017e62"></path><path d="M113 380L62 441L210 419Z" fill="#02745b" stroke="#02745b"></path><path d="M111 554L60 624L193 632Z" fill="#009473" stroke="#009473"></path><path d="M1920 617L1795 607L1920 706Z" fill="#008d6d" stroke="#008d6d"></path><path d="M1860 507L1920 442L1782 432Z" fill="#027058" stroke="#027058"></path><path d="M1848 313L1920 289L1804 171Z" fill="#01896b" stroke="#01896b"></path><path d="M1920 569L1920 442L1860 507Z" fill="#009070" stroke="#009070"></path><path d="M95 195L77 298L151 319Z" fill="#01896b" stroke="#01896b"></path><path d="M0 581L60 624L111 554Z" fill="#01775d" stroke="#01775d"></path><path d="M131 703L82 788L222 793Z" fill="#008d6d" stroke="#008d6d"></path><path d="M1920 706L1783 713L1920 816Z" fill="#01896b" stroke="#01896b"></path><path d="M1920 442L1920 362L1849 346Z" fill="#017b60" stroke="#017b60"></path><path d="M1745 1080L1764 957L1672 1029Z" fill="#027058" stroke="#027058"></path><path d="M1764 957L1816 965L1814 896Z" fill="#008d6d" stroke="#008d6d"></path><path d="M1920 816L1783 713L1784 850Z" fill="#009473" stroke="#009473"></path><path d="M56 108L95 195L152 108Z" fill="#018265" stroke="#018265"></path><path d="M152 108L95 195L231 142Z" fill="#017b60" stroke="#017b60"></path><path d="M1656 1080L1745 1080L1672 1029Z" fill="#009070" stroke="#009070"></path><path d="M0 756L82 788L131 703Z" fill="#008d6d" stroke="#008d6d"></path><path d="M207 959L187 1080L281 1080Z" fill="#017b60" stroke="#017b60"></path><path d="M1920 816L1784 850L1814 896Z" fill="#02745b" stroke="#02745b"></path><path d="M1920 362L1920 289L1848 313Z" fill="#027058" stroke="#027058"></path><path d="M1830 113L1806 0L1744 104Z" fill="#009070" stroke="#009070"></path><path d="M1920 62L1806 0L1830 113Z" fill="#017e62" stroke="#017e62"></path><path d="M1920 937L1920 816L1814 896Z" fill="#009070" stroke="#009070"></path><path d="M1920 937L1814 896L1816 965Z" fill="#017b60" stroke="#017b60"></path><path d="M127 1009L187 1080L207 959Z" fill="#008d6d" stroke="#008d6d"></path><path d="M1920 289L1920 166L1804 171Z" fill="#008d6d" stroke="#008d6d"></path><path d="M62 441L0 581L111 554Z" fill="#009070" stroke="#009070"></path><path d="M60 624L0 756L131 703Z" fill="#009473" stroke="#009473"></path><path d="M54 911L207 959L203 863Z" fill="#01896b" stroke="#01896b"></path><path d="M0 426L0 581L62 441Z" fill="#009070" stroke="#009070"></path><path d="M62 441L113 380L0 364Z" fill="#01775d" stroke="#01775d"></path><path d="M0 364L113 380L77 298Z" fill="#009070" stroke="#009070"></path><path d="M0 581L0 631L60 624Z" fill="#017e62" stroke="#017e62"></path><path d="M54 911L203 863L82 788Z" fill="#01775d" stroke="#01775d"></path><path d="M0 296L0 364L77 298Z" fill="#01896b" stroke="#01896b"></path><path d="M213 0L117 0L152 108Z" fill="#018265" stroke="#018265"></path><path d="M95 195L0 296L77 298Z" fill="#008d6d" stroke="#008d6d"></path><path d="M0 151L0 296L95 195Z" fill="#009473" stroke="#009473"></path><path d="M117 0L56 108L152 108Z" fill="#01775d" stroke="#01775d"></path><path d="M0 835L54 911L82 788Z" fill="#017b60" stroke="#017b60"></path><path d="M0 631L0 756L60 624Z" fill="#017b60" stroke="#017b60"></path><path d="M1920 1002L1920 937L1816 965Z" fill="#01896b" stroke="#01896b"></path><path d="M1920 166L1920 62L1830 113Z" fill="#01775d" stroke="#01775d"></path><path d="M0 756L0 835L82 788Z" fill="#009473" stroke="#009473"></path><path d="M1745 1080L1862 1080L1816 965Z" fill="#02745b" stroke="#02745b"></path><path d="M0 122L0 151L56 108Z" fill="#017b60" stroke="#017b60"></path><path d="M56 108L0 151L95 195Z" fill="#027058" stroke="#027058"></path><path d="M1862 1080L1920 1002L1816 965Z" fill="#018265" stroke="#018265"></path><path d="M0 981L127 1009L54 911Z" fill="#027058" stroke="#027058"></path><path d="M0 981L96 1080L127 1009Z" fill="#018265" stroke="#018265"></path><path d="M127 1009L96 1080L187 1080Z" fill="#008d6d" stroke="#008d6d"></path><path d="M1920 62L1920 0L1806 0Z" fill="#009070" stroke="#009070"></path><path d="M0 0L0 122L56 108Z" fill="#017b60" stroke="#017b60"></path><path d="M0 835L0 906L54 911Z" fill="#017b60" stroke="#017b60"></path><path d="M1862 1080L1920 1080L1920 1002Z" fill="#008d6d" stroke="#008d6d"></path><path d="M0 906L0 981L54 911Z" fill="#018668" stroke="#018668"></path><path d="M117 0L0 0L56 108Z" fill="#01775d" stroke="#01775d"></path><path d="M0 981L0 1080L96 1080Z" fill="#008d6d" stroke="#008d6d"></path></g></svg>